# xmcd
#
# Track frame offsets:
#	150
#	12168
#	21733
#	33768
#	47438
#	59640
#	71748
#	83395
#	95380
#	107780
#	119133
#	129833
#	144443
#	155535
#	170080
#	183213
#
# Disc length: 2626 seconds
#
# Revision: 1
# Processed by: cddbd v1.4PL0 Copyright (c) Steve Scherf et al.
# Submitted via: audiograbber 1.82.00
#
DISCID=d50a4010
DTITLE=Otis Redding - 16 Original Hits
DYEAR=1900
DGENRE=Soul
TTITLE0=Mr. Pitiful
TTITLE1=Respect
TTITLE2=Fa-Fa-Fa (Sad Song)
TTITLE3=Tramp
TTITLE4=(Sittin' on) the dock of the bay
TTITLE5=The happy song
TTITLE6=Lovey dovey
TTITLE7=Shake
TTITLE8=Satisfaction
TTITLE9=Papa's got a brand new bag
TTITLE10=Pain in my heart
TTITLE11=I've got dreams to remember
TTITLE12=That's how strong my love is
TTITLE13=I've been loving you too long
TTITLE14=My girl
TTITLE15=Amen
EXTD=
EXTT0=
EXTT1=
EXTT2=
EXTT3=
EXTT4=
EXTT5=
EXTT6=
EXTT7=
EXTT8=
EXTT9=
EXTT10=
EXTT11=
EXTT12=
EXTT13=
EXTT14=
EXTT15=
PLAYORDER=
